<?xml version="1.0" standalone="no"?>
<!DOCTYPE svg PUBLIC "-//W3C//DTD SVG 1.1//EN" "http://www.w3.org/Graphics/SVG/1.1/DTD/svg11.dtd" >
<svg>
<metadata>
Created by FontForge 20090622 at Thu Sep 21 08:17:30 2017
 By deploy user
Copyright 2016 Adobe Systems Incorporated. All rights reserved.
</metadata>
<defs>
<font id="Untitled" horiz-adv-x="833" >
  <font-face 
    font-family="BEYNO"
    font-weight="400"
    font-stretch="normal"
    units-per-em="1000"
    panose-1="0 0 0 0 0 0 0 0 0 0"
    ascent="750"
    descent="-250"
    x-height="716"
    cap-height="716"
    bbox="-0.438202 -100 906 739"
    underline-thickness="50"
    underline-position="-50"
    unicode-range="U+0020-U+007A"
  />
<missing-glyph horiz-adv-x="360" 
 />
    <glyph glyph-name=".notdef" horiz-adv-x="360" 
 />
    <glyph glyph-name=".null" horiz-adv-x="0" 
 />
    <glyph glyph-name="nonmarkingreturn" horiz-adv-x="333" 
 />
    <glyph glyph-name="space" unicode=" " horiz-adv-x="360" 
 />
    <glyph glyph-name="exclam" unicode="!" horiz-adv-x="185" 
d="M18 716h52q6 0 11.5 -4.5t5.5 -10.5v-546q0 -15 -17 -15h-52q-15 0 -15 15v546q0 15 15 15zM74 84q16 0 16 -16l-1 -51q0 -17 -15 -17h-59q-15 0 -15 16v51q0 17 16 17h58z" />
    <glyph glyph-name="quotedbl" unicode="&#x22;" horiz-adv-x="304" 
d="M84 474q0 -15 -16 -15h-51q-17 0 -17 16v226q0 16 16 16l51 -1q17 0 17 -15v-227zM209 474q0 -15 -16 -15h-51q-17 0 -17 16v226q0 16 15 16l51 -1q18 0 18 -15v-227z" />
    <glyph glyph-name="plus" unicode="+" horiz-adv-x="432" 
d="M320 417q6 0 11.5 -4.5t5.5 -11.5v-51q0 -17 -15 -17h-111v-112q0 -15 -16 -15h-51q-17 0 -17 16v111h-112q-15 0 -15 15v51q0 18 16 18h111v111q0 15 15 15h52q6 0 11.5 -4.5t5.5 -10.5v-111h109z" />
    <glyph glyph-name="comma" unicode="," horiz-adv-x="185" 
d="M74 84q16 0 16 -16l-1 -151q0 -17 -15 -17h-59q-15 0 -15 15v151q0 18 16 18h58z" />
    <glyph glyph-name="period" unicode="." horiz-adv-x="185" 
d="M74 84q16 0 16 -16l-1 -51q0 -17 -15 -17h-59q-15 0 -15 15v51q0 18 16 18h58z" />
    <glyph glyph-name="slash" unicode="/" 
d="M318 696q12 -6 12 -16v-3l-1 -2l-249 -665q-4 -10 -13 -10q-3 0 -9 2l-47 17q-11 4 -11 14q0 4 1 6l249 666q3 10 14 10q4 0 54 -19z" />
    <glyph glyph-name="zero" unicode="0" 
 />
    <glyph glyph-name="one" unicode="1" 
 />
    <glyph glyph-name="two" unicode="2" 
 />
    <glyph glyph-name="three" unicode="3" 
 />
    <glyph glyph-name="four" unicode="4" 
 />
    <glyph glyph-name="five" unicode="5" 
 />
    <glyph glyph-name="six" unicode="6" 
 />
    <glyph glyph-name="seven" unicode="7" 
 />
    <glyph glyph-name="eight" unicode="8" 
 />
    <glyph glyph-name="nine" unicode="9" 
 />
    <glyph glyph-name="question" unicode="?" horiz-adv-x="440" 
d="M201 632h-167q-15 0 -15 17v51q0 16 15 16h242h63q6 0 6 -4q0 -5 -4 -11l-241 -370v-174q0 -18 -15 -18h-52q-17 0 -17 18v179zM88 84q16 0 16 -16l-1 -51q0 -17 -15 -17h-59q-15 0 -15 15v51q0 18 16 18h58z" />
    <glyph glyph-name="A" unicode="A" horiz-adv-x="736" 
d="M344 704q294 -679 294 -680q3 -7 3 -12q0 -12 -17 -12h-605q-19 0 -19 15q0 6 2 9l298 680q6 13 21 13h3q14 0 20 -13zM322 561l-203 -476h405z" />
    <glyph glyph-name="B" unicode="B" horiz-adv-x="632" 
d="M304 634h-237q-16 0 -16 17v50q0 15 16 15h242q76 -1 133 -55t57 -134q0 -87 -66 -147q48 -29 76 -76t28 -101q0 -82 -60 -142.5t-140 -60.5h-320q-17 0 -17 15v379q0 16 16 16h287q46 0 78.5 32.5t32.5 78.5q0 48 -31 80.5t-79 32.5zM82 328v-246h254q47 0 80.5 37
t35.5 85q0 50 -33 87t-83 37h-254z" />
    <glyph glyph-name="C" unicode="C" horiz-adv-x="692" 
d="M50 182q-67 114 -45 250q16 91 75 165t145 111q89 38 186 27t175 -68q14 -10 8 -22l-25 -41q-13 -20 -28 -6q-62 48 -161 55q-88 0 -163 -47t-111 -127q-38 -85 -16.5 -177.5t93.5 -151.5q72 -61 168 -63.5t190 56.5q15 10 24 -5q27 -45 28 -47q6 -10 -10 -22
q-63 -46 -141 -62t-154 2q-75 17 -137.5 62t-100.5 111z" />
    <glyph glyph-name="D" unicode="D" horiz-adv-x="702" 
d="M16 0q-16 0 -16 14v685q0 17 16 17h230q149 0 255 -104t106 -255t-108 -254t-253 -103h-230zM82 634v-552h161q119 0 200 82.5t81 200.5q0 117 -81.5 193t-196.5 76h-164z" />
    <glyph glyph-name="E" unicode="E" horiz-adv-x="599" 
d="M16 0q-16 0 -16 16v686q0 14 16 14h473q15 0 15 -15v-50q0 -18 -16 -18h-404v-120h321q15 0 15 -17v-50q0 -17 -15 -17h-321v-124h321q15 0 15 -16v-51q0 -6 -4.5 -11.5t-10.5 -5.5h-321v-138h401q18 0 18 -17v-49q0 -17 -17 -17h-470z" />
    <glyph glyph-name="F" unicode="F" horiz-adv-x="591" 
d="M84 316v-302q0 -14 -17 -14h-51q-16 0 -16 14v686q0 16 16 16h463q17 0 17 -17v-48q0 -18 -17 -18h-395v-233h280q15 0 15 -16v-50q0 -18 -15 -18h-280z" />
    <glyph glyph-name="G" unicode="G" horiz-adv-x="700" 
d="M515 615q-64 37 -139 37q-119 0 -206.5 -84t-87.5 -200t83 -201t198 -85q66 0 160 47v175q0 24 23 24h35q11 0 17.5 -7t6.5 -17v-209q0 -12 -16 -24q-102 -71 -222 -71q-100 0 -186.5 51.5t-135.5 139.5l9 -16q-54 89 -54 194q0 151 108.5 260t260.5 109
q62 0 124.5 -21.5t103.5 -62.5q7 -7 7 -18q0 -16 -15 -31t-27 -15q-7 0 -47 25z" />
    <glyph glyph-name="H" unicode="H" horiz-adv-x="685" 
d="M511 712q4 4 12 4h50q17 0 17 -15v-686q0 -15 -17 -15h-50q-16 0 -16 15v206h-424v-206q0 -15 -17 -15h-51q-15 0 -15 15v686q0 15 15 15h52q16 0 16 -15v-189h424v189q0 7 4 11zM507 305v124h-424v-124h424z" />
    <glyph glyph-name="I" unicode="I" horiz-adv-x="246" 
d="M15 716h52q17 0 17 -16v-685q0 -15 -17 -15h-52q-15 0 -15 15v686q0 15 15 15z" />
    <glyph glyph-name="J" unicode="J" horiz-adv-x="404" 
d="M4 57q-4 7 -4 9q0 4 8 12l35 33q5 5 9 5t8 -3q6 -4 15.5 -11t14.5 -10t12.5 -6.5t16 -5t19.5 -1.5q33 0 60.5 24.5t27.5 64.5v543q0 12 14 15h53q16 0 16 -16v-542q0 -75 -51.5 -122.5t-119.5 -47.5q-89 0 -134 59z" />
    <glyph glyph-name="K" unicode="K" horiz-adv-x="569" 
d="M469 19q5 -7 5 -9q0 -10 -23 -10h-68q-10 0 -24 16l-185 196l-92 -96v-92q0 -24 -24 -24h-35q-23 0 -23 24v669q0 24 23 24h35q10 0 17 -7t7 -17v-284l204 217q14 16 25 16h68q21 0 21 -11q0 -4 -4 -8l-314 -333v-55l265 280q16 16 25 16h68q11 0 18.5 -5.5t-0.5 -13.5
l-228 -240z" />
    <glyph glyph-name="L" unicode="L" horiz-adv-x="543" 
d="M433 0h-418q-15 0 -15 15v686q0 15 16 15h51q15 0 15 -15v-618h351q15 0 15 -17v-51q-2 -13 -15 -15z" />
    <glyph glyph-name="M" unicode="M" horiz-adv-x="1001" 
d="M453 472l96 232q5 12 20 12h32q15 0 19 -12l284 -682q2 -6 2 -9q0 -13 -16 -13h-51q-3 0 -5.5 0.5t-4.5 1.5t-4 2.5t-3.5 3.5t-3.5 5.5t-3 6.5t-3.5 8.5t-4 9.5l-4.5 12t-5 14l-213 523l-213 -523q-3 -8 -7.5 -19t-6 -16t-4.5 -11t-5 -8.5l-4.5 -5.5t-6 -3.5t-7.5 -0.5
h-51q-17 0 -17 13q0 3 2 9l145 347l-88 219l-213 -524q-3 -7 -6 -15.5t-5 -13l-4.5 -10.5t-4 -8.5l-3.5 -6t-3.5 -5t-4 -3t-5 -2t-5.5 -0.5h-51q-17 0 -17 13q0 6 2 9l284 683q5 11 19 11h32q15 0 20 -12z" />
    <glyph glyph-name="N" unicode="N" horiz-adv-x="709" 
d="M590 717h5q19 0 19 -16l-5 -686q0 -15 -18 -15h-64l-444 600v-372l175 -1q15 0 15 -16v-51q0 -17 -16 -17l-242 1q-15 0 -15 13v547q0 16 17 16h69q10 0 16 -8l425 -573l4 563q0 6 4.5 10.5t10.5 4.5h44zM345 84q15 0 15 -16v-51q0 -7 -4.5 -12t-11.5 -5h-329
q-15 0 -15 15v51q0 18 16 18h329z" />
    <glyph glyph-name="O" unicode="O" horiz-adv-x="829" 
d="M369 738q152 0 260.5 -108.5t108.5 -260.5t-108.5 -260.5t-260.5 -108.5q-153 0 -261 108.5t-108 260.5t108 260.5t261 108.5zM369 81q118 0 202.5 84.5t84.5 203.5t-84 203.5t-203 84.5t-203.5 -84.5t-84.5 -203.5t84.5 -203.5t203.5 -84.5z" />
    <glyph glyph-name="P" unicode="P" horiz-adv-x="614" 
d="M64 716h242q95 0 154 -64t59 -158q0 -91 -61 -159.5t-156 -68.5h-219v-251q0 -15 -16 -15h-51q-16 0 -16 15v316q0 17 16 17l289 -1q54 4 93.5 47t39.5 96q0 56 -41 100t-97 44h-236q-16 0 -16 15v50q0 17 16 17z" />
    <glyph glyph-name="Q" unicode="Q" 
d="M369 738q105 0 191 -54.5t132 -140.5t46 -183q0 -123 -78 -223l75 -74q5 -5 5 -10q0 -8 -6 -14l-36 -36q-6 -6 -13 -6q-5 0 -10 6l-75 75q-99 -79 -225 -79q-94 0 -179 43.5t-140.5 129t-55.5 193.5q0 98 48.5 183.5t134 137.5t186.5 52zM602 196q55 74 55 170
q0 116 -82 202.5t-204 86.5q-118 0 -203 -85t-85 -202q0 -121 86.5 -204.5t202.5 -83.5q95 0 169 56l-38 40q-5 4 -5 10q0 7 5 12l36 36q5 5 12 5t11 -4z" />
    <glyph glyph-name="R" unicode="R" horiz-adv-x="617" 
d="M16 348h291q53 4 92 46.5t39 96.5q0 56 -41 99.5t-97 43.5h-241q-16 0 -16 17v50q0 15 16 15h242q89 0 155 -66.5t66 -157.5q0 -75 -48 -137.5t-122 -83.5l156 -260q3 -6 3 -8q0 -3 -9 -3h-75q-13 0 -22 15l-151 251h-171v-251q0 -15 -15 -15h-52q-16 0 -16 15v316
q0 17 16 17z" />
    <glyph glyph-name="S" unicode="S" horiz-adv-x="355" 
d="M132 606q-8 -8 -24 -40.5t-16 -57.5q0 -41 27 -77q8 -11 36 -44.5t38.5 -49.5t22 -48.5t11.5 -66.5q0 -88 -60.5 -154.5t-150.5 -71.5q-16 0 -16 18v44q0 14 16 16q53 7 93 54.5t40 100.5q0 36 -21.5 68.5t-52 66t-42.5 57.5q-22 44 -22 91q0 87 63 155t153 72
q16 0 16 -18v-46q0 -13 -16 -15q-53 -7 -95 -54z" />
    <glyph glyph-name="T" unicode="T" horiz-adv-x="501" 
d="M388 716q15 0 18 -15v-49q0 -19 -18 -19h-210v-617q0 -6 -5 -11t-12 -5h-50q-16 0 -16 16v685q0 15 16 15h277z" />
    <glyph glyph-name="U" unicode="U" horiz-adv-x="683" 
d="M569 728q19 0 19 -15v-419q0 -124 -85.5 -209t-209.5 -85q-119 0 -206 87t-87 207v419q0 15 14 15h54q6 0 11 -4.5t5 -10.5v-406q0 -97 59.5 -162t153.5 -65q96 0 152 65.5t56 161.5v406q0 15 17 15h47z" />
    <glyph glyph-name="V" unicode="V" horiz-adv-x="738" 
d="M641 694l-284 -682q-5 -12 -20 -12h-32q-15 0 -19 12l-284 682q-4 9 0 15.5t15 6.5h51q3 0 5.5 -0.5t5 -2t4 -3t3.5 -5l3.5 -6t4 -8.5l4.5 -10.5t5 -12.5t6 -15l212 -524l213 524q3 8 7.5 18.5t6 15.5t4.5 11t5 8.5l4.5 5.5t6 3.5t7.5 0.5h51q17 0 17 -13q0 -3 -2 -9z
" />
    <glyph glyph-name="W" unicode="W" horiz-adv-x="1001" 
d="M549 12l-96 232l-96 -232q-5 -12 -20 -12h-32q-14 0 -19 11l-284 683q-2 3 -2 9q0 13 17 13h51q3 0 5.5 -0.5t5 -2t4 -3t3.5 -5l3.5 -6t4 -8.5l4.5 -10.5t5 -13t6 -15.5l213 -524l88 219l-145 347q-2 6 -2 9q0 13 17 13h51q4 0 7.5 -0.5t6 -3.5l4.5 -5.5t5 -8.5t4.5 -11
t6 -16t7.5 -19l213 -523l213 523q2 6 5 14l4.5 12t4 9.5t3.5 8.5t3 6.5t3.5 5.5t3.5 3.5t4 2.5t4.5 1.5t5.5 0.5h51q16 0 16 -13q0 -3 -2 -9l-284 -682q-4 -12 -19 -12h-32q-15 0 -20 12z" />
    <glyph glyph-name="X" unicode="X" horiz-adv-x="675" 
d="M341 358q239 -349 239 -353t-7 -4h-72q-13 0 -25 16l-186 274l-186 -274q-12 -16 -24 -16h-73q-7 0 -7 4t240 354q-240 350 -240 354t7 4h73q14 0 24 -16l186 -274l186 274q12 16 25 16h72q7 0 7 -4t-239 -355z" />
    <glyph glyph-name="Y" unicode="Y" horiz-adv-x="424" 
d="M18 716h305q6 0 6 -4t-4 -10l-242 -387v-298q0 -17 -14 -17h-52q-17 0 -17 17v303l185 312h-167q-15 0 -15 18v51q0 15 15 15z" />
    <glyph glyph-name="Z" unicode="Z" horiz-adv-x="684" 
d="M564 646l-449 -563h457q17 0 17 -17v-49q0 -7 -5 -12t-12 -5h-555q-7 0 -12 5t-5 12v53q0 9 2 11l451 552h-427q-17 0 -17 18v50q0 15 17 15h520q18 0 18 -16v-54zM574 222q15 0 15 -16v-51q0 -6 -4.5 -11.5t-11.5 -5.5h-226q-16 0 -16 15l1 51q0 7 4.5 12.5t10.5 5.5
h227z" />
    <glyph glyph-name="a" unicode="a" horiz-adv-x="736" 
d="M344 704q294 -679 294 -680q3 -7 3 -12q0 -12 -17 -12h-605q-19 0 -19 15q0 6 2 9l298 680q6 13 21 13h3q14 0 20 -13zM322 561l-203 -476h405z" />
    <glyph glyph-name="b" unicode="b" horiz-adv-x="632" 
d="M304 634h-237q-16 0 -16 17v50q0 15 16 15h242q76 -1 133 -55t57 -134q0 -87 -66 -147q48 -29 76 -76t28 -101q0 -82 -60 -142.5t-140 -60.5h-320q-17 0 -17 15v379q0 16 16 16h287q46 0 78.5 32.5t32.5 78.5q0 48 -31 80.5t-79 32.5zM82 328v-246h254q47 0 80.5 37
t35.5 85q0 50 -33 87t-83 37h-254z" />
    <glyph glyph-name="c" unicode="c" horiz-adv-x="692" 
d="M50 182q-67 114 -45 250q16 91 75 165t145 111q89 38 186 27t175 -68q14 -10 8 -22l-25 -41q-13 -20 -28 -6q-62 48 -161 55q-88 0 -163 -47t-111 -127q-38 -85 -16.5 -177.5t93.5 -151.5q72 -61 168 -63.5t190 56.5q15 10 24 -5q27 -45 28 -47q6 -10 -10 -22
q-63 -46 -141 -62t-154 2q-75 17 -137.5 62t-100.5 111z" />
    <glyph glyph-name="d" unicode="d" horiz-adv-x="702" 
d="M16 0q-16 0 -16 14v685q0 17 16 17h230q149 0 255 -104t106 -255t-108 -254t-253 -103h-230zM82 634v-552h161q119 0 200 82.5t81 200.5q0 117 -81.5 193t-196.5 76h-164z" />
    <glyph glyph-name="e" unicode="e" horiz-adv-x="599" 
d="M16 0q-16 0 -16 16v686q0 14 16 14h473q15 0 15 -15v-50q0 -18 -16 -18h-404v-120h321q15 0 15 -17v-50q0 -17 -15 -17h-321v-124h321q15 0 15 -16v-51q0 -6 -4.5 -11.5t-10.5 -5.5h-321v-138h401q18 0 18 -17v-49q0 -17 -17 -17h-470z" />
    <glyph glyph-name="f" unicode="f" horiz-adv-x="591" 
d="M84 316v-302q0 -14 -17 -14h-51q-16 0 -16 14v686q0 16 16 16h463q17 0 17 -17v-48q0 -18 -17 -18h-395v-233h280q15 0 15 -16v-50q0 -18 -15 -18h-280z" />
    <glyph glyph-name="g" unicode="g" horiz-adv-x="700" 
d="M515 615q-64 37 -139 37q-119 0 -206.5 -84t-87.5 -200t83 -201t198 -85q66 0 160 47v175q0 24 23 24h35q11 0 17.5 -7t6.5 -17v-209q0 -12 -16 -24q-102 -71 -222 -71q-100 0 -186.5 51.5t-135.5 139.5l9 -16q-54 89 -54 194q0 151 108.5 260t260.5 109
q62 0 124.5 -21.5t103.5 -62.5q7 -7 7 -18q0 -16 -15 -31t-27 -15q-7 0 -47 25z" />
    <glyph glyph-name="h" unicode="h" horiz-adv-x="685" 
d="M511 712q4 4 12 4h50q17 0 17 -15v-686q0 -15 -17 -15h-50q-16 0 -16 15v206h-424v-206q0 -15 -17 -15h-51q-15 0 -15 15v686q0 15 15 15h52q16 0 16 -15v-189h424v189q0 7 4 11zM507 305v124h-424v-124h424z" />
    <glyph glyph-name="i" unicode="i" horiz-adv-x="246" 
d="M15 716h52q17 0 17 -16v-685q0 -15 -17 -15h-52q-15 0 -15 15v686q0 15 15 15z" />
    <glyph glyph-name="j" unicode="j" horiz-adv-x="404" 
d="M4 57q-4 7 -4 9q0 4 8 12l35 33q5 5 9 5t8 -3q6 -4 15.5 -11t14.5 -10t12.5 -6.5t16 -5t19.5 -1.5q33 0 60.5 24.5t27.5 64.5v543q0 12 14 15h53q16 0 16 -16v-542q0 -75 -51.5 -122.5t-119.5 -47.5q-89 0 -134 59z" />
    <glyph glyph-name="k" unicode="k" horiz-adv-x="569" 
d="M469 19q5 -7 5 -9q0 -10 -23 -10h-68q-10 0 -24 16l-185 196l-92 -96v-92q0 -24 -24 -24h-35q-23 0 -23 24v669q0 24 23 24h35q10 0 17 -7t7 -17v-284l204 217q14 16 25 16h68q21 0 21 -11q0 -4 -4 -8l-314 -333v-55l265 280q16 16 25 16h68q11 0 18.5 -5.5t-0.5 -13.5
l-228 -240z" />
    <glyph glyph-name="l" unicode="l" horiz-adv-x="543" 
d="M433 0h-418q-15 0 -15 15v686q0 15 16 15h51q15 0 15 -15v-618h351q15 0 15 -17v-51q-2 -13 -15 -15z" />
    <glyph glyph-name="m" unicode="m" horiz-adv-x="1001" 
d="M453 472l96 232q5 12 20 12h32q15 0 19 -12l284 -682q2 -6 2 -9q0 -13 -16 -13h-51q-3 0 -5.5 0.5t-4.5 1.5t-4 2.5t-3.5 3.5t-3.5 5.5t-3 6.5t-3.5 8.5t-4 9.5l-4.5 12t-5 14l-213 523l-213 -523q-3 -8 -7.5 -19t-6 -16t-4.5 -11t-5 -8.5l-4.5 -5.5t-6 -3.5t-7.5 -0.5
h-51q-17 0 -17 13q0 3 2 9l145 347l-88 219l-213 -524q-3 -7 -6 -15.5t-5 -13l-4.5 -10.5t-4 -8.5l-3.5 -6t-3.5 -5t-4 -3t-5 -2t-5.5 -0.5h-51q-17 0 -17 13q0 6 2 9l284 683q5 11 19 11h32q15 0 20 -12z" />
    <glyph glyph-name="n" unicode="n" horiz-adv-x="709" 
d="M590 717h5q19 0 19 -16l-5 -686q0 -15 -18 -15h-64l-444 600v-372l175 -1q15 0 15 -16v-51q0 -17 -16 -17l-242 1q-15 0 -15 13v547q0 16 17 16h69q10 0 16 -8l425 -573l4 563q0 6 4.5 10.5t10.5 4.5h44zM345 84q15 0 15 -16v-51q0 -7 -4.5 -12t-11.5 -5h-329
q-15 0 -15 15v51q0 18 16 18h329z" />
    <glyph glyph-name="o" unicode="o" horiz-adv-x="829" 
d="M369 738q152 0 260.5 -108.5t108.5 -260.5t-108.5 -260.5t-260.5 -108.5q-153 0 -261 108.5t-108 260.5t108 260.5t261 108.5zM369 81q118 0 202.5 84.5t84.5 203.5t-84 203.5t-203 84.5t-203.5 -84.5t-84.5 -203.5t84.5 -203.5t203.5 -84.5z" />
    <glyph glyph-name="p" unicode="p" horiz-adv-x="614" 
d="M64 716h242q95 0 154 -64t59 -158q0 -91 -61 -159.5t-156 -68.5h-219v-251q0 -15 -16 -15h-51q-16 0 -16 15v316q0 17 16 17l289 -1q54 4 93.5 47t39.5 96q0 56 -41 100t-97 44h-236q-16 0 -16 15v50q0 17 16 17z" />
    <glyph glyph-name="q" unicode="q" 
d="M369 738q105 0 191 -54.5t132 -140.5t46 -183q0 -123 -78 -223l75 -74q5 -5 5 -10q0 -8 -6 -14l-36 -36q-6 -6 -13 -6q-5 0 -10 6l-75 75q-99 -79 -225 -79q-94 0 -179 43.5t-140.5 129t-55.5 193.5q0 98 48.5 183.5t134 137.5t186.5 52zM602 196q55 74 55 170
q0 116 -82 202.5t-204 86.5q-118 0 -203 -85t-85 -202q0 -121 86.5 -204.5t202.5 -83.5q95 0 169 56l-38 40q-5 4 -5 10q0 7 5 12l36 36q5 5 12 5t11 -4z" />
    <glyph glyph-name="r" unicode="r" horiz-adv-x="617" 
d="M16 348h291q53 4 92 46.5t39 96.5q0 56 -41 99.5t-97 43.5h-241q-16 0 -16 17v50q0 15 16 15h242q89 0 155 -66.5t66 -157.5q0 -75 -48 -137.5t-122 -83.5l156 -260q3 -6 3 -8q0 -3 -9 -3h-75q-13 0 -22 15l-151 251h-171v-251q0 -15 -15 -15h-52q-16 0 -16 15v316
q0 17 16 17z" />
    <glyph glyph-name="s" unicode="s" horiz-adv-x="355" 
d="M132 606q-8 -8 -24 -40.5t-16 -57.5q0 -41 27 -77q8 -11 36 -44.5t38.5 -49.5t22 -48.5t11.5 -66.5q0 -88 -60.5 -154.5t-150.5 -71.5q-16 0 -16 18v44q0 14 16 16q53 7 93 54.5t40 100.5q0 36 -21.5 68.5t-52 66t-42.5 57.5q-22 44 -22 91q0 87 63 155t153 72
q16 0 16 -18v-46q0 -13 -16 -15q-53 -7 -95 -54z" />
    <glyph glyph-name="t" unicode="t" horiz-adv-x="501" 
d="M388 716q15 0 18 -15v-49q0 -19 -18 -19h-210v-617q0 -6 -5 -11t-12 -5h-50q-16 0 -16 16v685q0 15 16 15h277z" />
    <glyph glyph-name="u" unicode="u" horiz-adv-x="683" 
d="M569 728q19 0 19 -15v-419q0 -124 -85.5 -209t-209.5 -85q-119 0 -206 87t-87 207v419q0 15 14 15h54q6 0 11 -4.5t5 -10.5v-406q0 -97 59.5 -162t153.5 -65q96 0 152 65.5t56 161.5v406q0 15 17 15h47z" />
    <glyph glyph-name="v" unicode="v" horiz-adv-x="738" 
d="M641 694l-284 -682q-5 -12 -20 -12h-32q-15 0 -19 12l-284 682q-4 9 0 15.5t15 6.5h51q3 0 5.5 -0.5t5 -2t4 -3t3.5 -5l3.5 -6t4 -8.5l4.5 -10.5t5 -12.5t6 -15l212 -524l213 524q3 8 7.5 18.5t6 15.5t4.5 11t5 8.5l4.5 5.5t6 3.5t7.5 0.5h51q17 0 17 -13q0 -3 -2 -9z
" />
    <glyph glyph-name="w" unicode="w" horiz-adv-x="1001" 
d="M890 716q10 0 14 -6t0 -16l-284 -682q-5 -12 -19 -12h-32q-15 0 -20 12l-95 233l-97 -233q-5 -12 -19 -12h-1h-31h-1q-15 0 -19 12l-284 682q-4 10 0 16t15 6h51q3 0 5.5 -0.5t5 -2t4 -3t3.5 -5l3.5 -6t4 -8.5l4.5 -10.5t5 -12.5t6 -15l212 -524l87 214l-130 314
q-4 10 0 16t14 6h51q3 0 5.5 -0.5t4.5 -1.5t4 -2.5t3.5 -3.5t3.5 -5.5t3 -6.5t3.5 -8.5t4 -9.5l4.5 -12t5 -14l68 -165l63 163q3 8 7.5 19t6 16t4.5 11t5 8.5l4.5 5.5t6 3.5t7.5 0.5h51q10 0 14 -6t0 -16l-125 -308q65 -158 88 -219l214 525q2 6 5.5 15l5 13t4 10t4 8.5
l3.5 6t3.5 5t4 3t5.5 2t6 0.5h51z" />
    <glyph glyph-name="x" unicode="x" horiz-adv-x="675" 
d="M341 358q239 -349 239 -353t-7 -4h-72q-13 0 -25 16l-186 274l-186 -274q-12 -16 -24 -16h-73q-7 0 -7 4t240 354q-240 350 -240 354t7 4h73q14 0 24 -16l186 -274l186 274q12 16 25 16h72q7 0 7 -4t-239 -355z" />
    <glyph glyph-name="y" unicode="y" horiz-adv-x="424" 
d="M6 716h305q15 0 15 -15v-51q0 -18 -15 -18h-167l185 -312v-303q0 -17 -17 -17h-52q-14 0 -14 17v298l-242 387q-4 6 -4 10t6 4z" />
    <glyph glyph-name="z" unicode="z" horiz-adv-x="684" 
d="M564 646l-449 -563h457q17 0 17 -17v-49q0 -7 -5 -12t-12 -5h-555q-7 0 -12 5t-5 12v53q0 9 2 11l451 552h-427q-17 0 -17 18v50q0 15 17 15h520q18 0 18 -16v-54zM574 222q15 0 15 -16v-51q0 -6 -4.5 -11.5t-11.5 -5.5h-226q-16 0 -16 15l1 51q0 7 4.5 12.5t10.5 5.5
h227z" />
  </font>
</defs>
</svg>
